<?xml version="1.0" encoding="utf-8"?>
<!-- Generator: Adobe Illustrator 21.0.2, SVG Export Plug-In . SVG Version: 6.00 Build 0)  -->
<svg version="1.1" id="Layer_1" xmlns="http://www.w3.org/2000/svg" xmlns:xlink="http://www.w3.org/1999/xlink" x="0px" y="0px"
	 viewBox="0 0 594.4 149.8" style="enable-background:new 0 0 594.4 149.8;" xml:space="preserve">
<style type="text/css">
	.st0{clip-path:url(#SVGID_1_);fill:url(#SVGID_2_);}
	.st1{clip-path:url(#SVGID_3_);fill:url(#SVGID_4_);}
	.st2{clip-path:url(#SVGID_5_);fill:url(#SVGID_6_);}
	.st3{clip-path:url(#SVGID_7_);fill:url(#SVGID_8_);}
	.st4{fill:#276733;}
</style>
<g>
	<g>
		<defs>
			<path id="SVGID_15_" d="M0,39.8v47.3c0,17.8,8.4,33.7,21.4,43.9V39.8H0z"/>
		</defs>
		<clipPath id="SVGID_1_">
			<use xlink:href="#SVGID_15_"  style="overflow:visible;"/>
		</clipPath>
		
			<linearGradient id="SVGID_2_" gradientUnits="userSpaceOnUse" x1="131.5501" y1="110.2388" x2="133.6469" y2="110.2388" gradientTransform="matrix(32.1333 78.8729 78.8729 -32.1333 -12930.21 -6794.3975)">
			<stop  offset="0" style="stop-color:#8BC53F"/>
			<stop  offset="0.5297" style="stop-color:#3F923B"/>
			<stop  offset="1" style="stop-color:#006838"/>
		</linearGradient>
		<polygon class="st0" points="18.3,32.3 53.3,118 3,138.5 -31.9,52.8 		"/>
	</g>
	<g>
		<defs>
			<path id="SVGID_18_" d="M66.1,39.8V143h21.4V94.3h48.7V72.9H87.5V61.2h48.6c-0.2-7.6-1.9-14.8-4.9-21.4H66.1z"/>
		</defs>
		<clipPath id="SVGID_3_">
			<use xlink:href="#SVGID_18_"  style="overflow:visible;"/>
		</clipPath>
		
			<linearGradient id="SVGID_4_" gradientUnits="userSpaceOnUse" x1="131.5501" y1="110.787" x2="133.6469" y2="110.787" gradientTransform="matrix(32.1332 78.8725 78.8725 -32.1332 -12897.8887 -6807.5068)">
			<stop  offset="0" style="stop-color:#8BC53F"/>
			<stop  offset="0.5297" style="stop-color:#3F923B"/>
			<stop  offset="1" style="stop-color:#006838"/>
		</linearGradient>
		<polygon class="st1" points="126.2,15.3 172.2,128.3 76.1,167.5 30.1,54.5 		"/>
	</g>
	<g>
		<defs>
			<path id="SVGID_21_" d="M0,6.8v21.4h33.1v109.9c6.6,2.9,13.8,4.6,21.4,4.8V28.2h69.7C114,15.2,98.1,6.8,80.3,6.8H0z"/>
		</defs>
		<clipPath id="SVGID_5_">
			<use xlink:href="#SVGID_21_"  style="overflow:visible;"/>
		</clipPath>
		
			<linearGradient id="SVGID_6_" gradientUnits="userSpaceOnUse" x1="131.5501" y1="110.5222" x2="133.6469" y2="110.5222" gradientTransform="matrix(32.1333 78.8728 78.8728 -32.1333 -12904.7588 -6804.7427)">
			<stop  offset="0" style="stop-color:#8BC53F"/>
			<stop  offset="0.5297" style="stop-color:#3F923B"/>
			<stop  offset="1" style="stop-color:#006838"/>
		</linearGradient>
		<polygon class="st2" points="106.5,-36.6 171.8,123.5 17.7,186.3 -47.6,26.2 		"/>
	</g>
	<g>
		<defs>
			<rect id="SVGID_24_" x="99.3" y="106" width="36.9" height="36.9"/>
		</defs>
		<clipPath id="SVGID_7_">
			<use xlink:href="#SVGID_24_"  style="overflow:visible;"/>
		</clipPath>
		
			<linearGradient id="SVGID_8_" gradientUnits="userSpaceOnUse" x1="131.5501" y1="110.7919" x2="133.6469" y2="110.7919" gradientTransform="matrix(32.1333 78.8728 78.8728 -32.1333 -12895.6699 -6808.4541)">
			<stop  offset="0" style="stop-color:#8BC53F"/>
			<stop  offset="0.5297" style="stop-color:#3F923B"/>
			<stop  offset="1" style="stop-color:#006838"/>
		</linearGradient>
		<polygon class="st3" points="130.9,93.1 149.1,137.7 104.5,155.8 86.4,111.3 		"/>
	</g>
	<g>
		<rect x="165.3" class="st4" width="5.6" height="26.7"/>
		<path class="st4" d="M218.7,55.1c-2.9-3.1-6.3-5.6-10.3-7.4c-4-1.8-8.6-2.7-13.7-2.7c-5.1,0-9.7,0.9-13.8,2.7
			c-4.1,1.8-7.5,4.3-10.3,7.4c-2.8,3.1-5,6.8-6.5,11c-1.5,4.2-2.2,8.7-2.2,13.5c0,4.9,0.7,9.4,2.2,13.6c1.5,4.2,3.6,7.8,6.4,10.9
			c2.9,3.1,6.3,5.5,10.3,7.3c4,1.8,8.6,2.6,13.8,2.6c5.1,0,9.7-0.9,13.7-2.6c4-1.8,7.5-4.2,10.3-7.3c2.8-3.1,4.9-6.8,6.4-10.9
			c1.5-4.2,2.3-8.7,2.3-13.6c0-4.8-0.8-9.3-2.3-13.5C223.6,61.8,221.4,58.2,218.7,55.1 M208.5,87.1c-0.6,2.4-1.6,4.6-2.8,6.4
			c-1.3,1.8-2.8,3.3-4.7,4.4c-1.8,1.1-4,1.6-6.4,1.6c-2.5,0-4.7-0.5-6.5-1.6c-1.8-1.1-3.4-2.6-4.7-4.4c-1.2-1.8-2.1-4-2.6-6.4
			c-0.6-2.4-0.9-4.9-0.9-7.5c0-2.6,0.3-5.1,0.9-7.5c0.6-2.4,1.5-4.5,2.6-6.5c1.3-1.8,2.8-3.3,4.7-4.5c1.8-1.1,4-1.7,6.5-1.7
			c2.4,0,4.6,0.6,6.4,1.7c1.8,1.1,3.4,2.6,4.7,4.5c1.3,1.9,2.2,4.1,2.8,6.5c0.6,2.4,0.9,4.9,0.9,7.5
			C209.5,82.2,209.2,84.7,208.5,87.1"/>
		<polygon class="st4" points="254.6,40.2 236.4,40.2 236.4,141.7 254.6,141.7 254.6,90.5 270.5,90.5 270.5,76 254.6,76 		"/>
		<rect x="352.2" y="40.2" class="st4" width="18.4" height="101.5"/>
		<path class="st4" d="M330.7,54.6c-2.9-3-6.3-5.4-10.4-7c-4.1-1.7-8.7-2.5-13.8-2.5c-5.1,0-9.7,0.8-13.8,2.5c-4.1,1.7-7.5,4-10.4,7
			c-2.8,3.1-4.9,6.8-6.4,11c-1.5,4.2-2.3,8.9-2.3,14c0,5.2,0.7,9.9,2.2,14.2c1.5,4.2,3.6,7.9,6.5,10.9c2.8,3,6.3,5.3,10.3,7
			c4,1.6,8.6,2.5,13.8,2.5c5.1,0,9.7-0.8,13.8-2.5c4.1-1.6,7.5-4,10.4-7c2.8-3,4.9-6.6,6.5-10.9c1.6-4.2,2.3-9,2.3-14.2
			c0-5.1-0.8-9.8-2.3-14C335.7,61.3,333.5,57.7,330.7,54.6 M317.8,93.6c-2.5,4-6.2,6-11.2,6c-5,0-8.8-2-11.2-6
			c-2.4-4-3.6-8.7-3.6-14c0-5.4,1.2-10.1,3.6-14.1c2.4-4,6.2-6,11.2-6c5,0,8.7,2,11.2,6c2.5,4,3.8,8.7,3.8,14.1
			C321.5,85,320.3,89.6,317.8,93.6"/>
		<path class="st4" d="M457.9,98c-2.8,1.7-5.9,3.1-9.3,4.3c-3.4,1.2-6.9,2.1-10.3,2.8c-3.4,0.8-6.7,1.3-9.8,1.6
			c-3.1,0.3-5.7,0.5-7.9,0.5h-10.1c-2.3,0-3.6-0.4-4.2-1.3c-0.5-0.9-0.8-2.1-0.8-3.7V88h37.1V73.8h-37.1V58.7h38.2V44.5h-56.4v61.9
			c0,5.2,1.4,9,4.1,11.4c2.7,2.4,6.9,3.6,12.4,3.6h17c5.8,0,12.1-0.8,18.9-2.3c6.8-1.5,12.8-3.6,18.1-6.2v28.8h18.4V40.2h-18.4V98z"
			/>
		<rect x="487.3" y="40.7" class="st4" width="64.7" height="13.6"/>
		<path class="st4" d="M578.8,39h-18.2v38.4c-3.3,1.3-6.4,2.1-9.4,2.6c-3,0.5-5.4,0.7-7,0.7h-3.1c0.8-1.5,1.4-3.3,1.8-5.3
			c0.5-2,0.7-4.1,0.7-6.4V58.2h-16.9v13.8c0,1.6-0.1,3.1-0.3,4.5c-0.2,1.4-0.4,2.8-0.8,4h-11.3c-0.5-1.3-0.8-2.7-1-4
			c-0.2-1.3-0.3-2.9-0.3-4.7V58.2h-16.9V69c0,2.8,0.2,5.1,0.6,6.9c0.4,1.8,0.9,3.4,1.7,4.7h-11.7v13.3h53.5c3.7,0,7.2-0.3,10.6-0.8
			c3.4-0.5,6.6-1.3,9.8-2.5c-0.1,2.8-0.6,5.3-1.4,7.7c-0.9,2.4-2.2,4.2-4.1,5.4h-53.7v32.8c0,5.3,1.3,8.8,4,10.6
			c2.6,1.8,6.6,2.6,11.9,2.6H569c2.2,0,3.9-0.4,5.2-1.2c1.3-0.8,2-2.1,2.1-4l2-29.1c0.3-3.6-0.3-6.3-1.6-8.2c-1.3-1.8-3.3-3-6.1-3.4
			c2.3-1.3,4.2-3.3,5.8-5.9c1.6-2.6,2.4-5.8,2.4-9.6V75.2h15.6v-14h-15.6V39z M559.6,135.6h-37.4c-1.3,0-2.1-0.2-2.4-0.7
			c-0.3-0.5-0.5-1.3-0.5-2.6v-14.5h40.2V135.6z"/>
		<polygon class="st4" points="197.1,4.3 189.5,4.3 189.5,26.7 183.8,26.7 183.8,4.3 176.2,4.3 176.2,0 197.1,0 		"/>
		<path class="st4" d="M202.9,1.1c0.9-0.8,2.3-1.1,4.2-1.1h11.7v4.3h-9.8c-0.7,0-1.2,0.1-1.4,0.4s-0.4,0.7-0.4,1.3v5.1h10.7v4.3
			h-10.7v11.3h-5.6V5.2C201.6,3.3,202,1.9,202.9,1.1"/>
		<path class="st4" d="M245.4,26.7h-5.6L238,21h-10.2l-1.9,5.7h-5.6L229.8,0h6.5L245.4,26.7z M236.7,17.2l-3.9-12.3L229,17.2H236.7z
			"/>
		<path class="st4" d="M264.3,0.5c1.2,0.4,2.2,0.9,2.9,1.5c0.8,0.7,1.3,1.5,1.6,2.5c0.3,1,0.5,2.2,0.5,3.5c0,2.2-0.4,4-1.2,5.2
			c-0.8,1.2-2.1,2.1-3.8,2.5c0.5,0.5,0.9,1,1.3,1.6c0.4,0.6,0.8,1.4,1.2,2.2l3.4,7.1h-5.7l-2.4-5.3c-0.5-1.2-1.2-2.2-1.8-3.2
			c-0.7-1-1.6-1.6-2.7-1.9h-2.8v10.4h-5.6V5.2c0-1.9,0.4-3.3,1.3-4c0.9-0.8,2.3-1.1,4.2-1.1h5.1C261.6,0,263.1,0.2,264.3,0.5
			 M256.5,4.3c-0.7,0-1.2,0.1-1.4,0.4c-0.2,0.3-0.4,0.7-0.4,1.3v6h4.4c1.6,0,2.7-0.3,3.4-0.8c0.7-0.6,1-1.6,1-3c0-1.4-0.3-2.4-1-3
			c-0.7-0.6-1.8-0.8-3.4-0.8H256.5z"/>
		<polygon class="st4" points="280.5,0 288.5,17.4 296.5,0 302,0 302,26.7 296.5,26.7 296.5,11.1 290.3,24.3 286.7,24.3 280.5,11.2 
			280.5,26.7 275,26.7 275,0 		"/>
		<rect x="308.7" y="10.6" class="st4" width="270.1" height="5.6"/>
	</g>
</g>
</svg>
